<?xml version="1.0" standalone="no"?><!-- Generator: Gravit.io --><svg xmlns="http://www.w3.org/2000/svg" xmlns:xlink="http://www.w3.org/1999/xlink" style="isolation:isolate" viewBox="0 0 264 264" width="264" height="264"><g transform="matrix(1,0,0,1,25.5,91)"><text transform="matrix(1,0,0,1,35.979,73.521)" style="font-family:&quot;Aldrich&quot;;font-weight:400;font-size:100px;font-style:normal;fill:#000000;stroke:#000000;stroke-width:1;">SA</text></g><path d=" M 30.5 94 L 132 46 L 30.5 94 Z  M 132 46 L 233.5 94 L 132 46 Z " fill-rule="evenodd" fill="none"/><g style="isolation: isolate;"><path d=" M 30.5 94 L 132 46 L 30.5 94 Z  M 132 46 L 233.5 94 L 132 46 Z " fill-rule="evenodd" fill="none" vector-effect="non-scaling-stroke" stroke-width="9" stroke="rgb(0,0,0)" stroke-linejoin="round" stroke-linecap="square" stroke-miterlimit="3"/><path d=" M 30.5 94 L 132 46 L 30.5 94 Z  M 132 46 L 233.5 94 L 132 46 Z " fill-rule="evenodd" fill="none" vector-effect="non-scaling-stroke" stroke-width="1" stroke="rgb(0,0,0)" stroke-linejoin="miter" stroke-linecap="square" stroke-miterlimit="3"/></g><path d=" M 233.5 170 L 132 218 L 233.5 170 Z  M 132 218 L 30.5 170 L 132 218 Z " fill-rule="evenodd" fill="none"/><g style="isolation: isolate;"><path d=" M 233.5 170 L 132 218 L 233.5 170 Z  M 132 218 L 30.5 170 L 132 218 Z " fill-rule="evenodd" fill="none" vector-effect="non-scaling-stroke" stroke-width="9" stroke="rgb(0,0,0)" stroke-linejoin="round" stroke-linecap="square" stroke-miterlimit="3"/><path d=" M 233.5 170 L 132 218 L 233.5 170 Z  M 132 218 L 30.5 170 L 132 218 Z " fill-rule="evenodd" fill="none" vector-effect="non-scaling-stroke" stroke-width="1" stroke="rgb(0,0,0)" stroke-linejoin="miter" stroke-linecap="square" stroke-miterlimit="3"/></g></svg>