<?xml version="1.0" standalone="no"?>
<!DOCTYPE svg PUBLIC "-//W3C//DTD SVG 20010904//EN"
 "http://www.w3.org/TR/2001/REC-SVG-20010904/DTD/svg10.dtd">
<svg version="1.0" xmlns="http://www.w3.org/2000/svg"
 width="1200.000000pt" height="1200.000000pt" viewBox="0 0 1200.000000 1200.000000"
 preserveAspectRatio="xMidYMid meet">
<metadata>
Created by potrace 1.11, written by Peter Selinger 2001-2013
</metadata>
<g transform="translate(0.000000,1200.000000) scale(0.100000,-0.100000)"
fill="#000000" stroke="none">
<path d="M5493 11309 c-182 -17 -320 -57 -441 -129 -115 -68 -227 -98 -427
-115 -84 -8 -105 -11 -174 -26 -63 -14 -99 -35 -163 -97 -79 -76 -82 -77 -188
-102 -228 -53 -236 -58 -392 -267 -92 -123 -141 -173 -210 -216 -15 -9 -34
-17 -42 -17 -34 0 -154 -98 -316 -257 l-175 -172 23 -21 c21 -20 21 -23 7 -56
-16 -39 -48 -82 -139 -189 -80 -94 -114 -151 -166 -275 -24 -58 -54 -132 -68
-164 -13 -32 -37 -77 -52 -98 -43 -60 -60 -122 -64 -245 -6 -145 -12 -175 -52
-253 -18 -36 -38 -85 -43 -110 -10 -43 -7 -311 3 -328 3 -4 8 -53 11 -107 11
-181 38 -274 133 -459 l56 -110 2 -115 c2 -104 11 -250 19 -291 1 -8 6 -33 9
-55 15 -97 29 -162 41 -200 12 -39 29 -105 39 -155 3 -14 8 -74 12 -135 4 -60
12 -129 19 -152 7 -24 11 -43 9 -43 -3 0 -22 8 -42 18 -20 10 -56 19 -79 21
-124 8 -178 -97 -175 -339 2 -123 6 -148 63 -350 15 -53 16 -58 32 -160 26
-156 29 -204 29 -460 0 -267 9 -337 53 -428 58 -119 269 -283 415 -322 68 -18
79 -20 160 -26 72 -6 77 -5 108 21 17 14 36 41 40 58 8 30 10 27 21 -38 7 -38
24 -115 37 -170 14 -55 27 -104 28 -110 5 -22 39 -133 54 -175 8 -25 17 -83
18 -130 2 -88 13 -328 19 -415 1 -27 6 -99 9 -160 10 -180 16 -266 24 -330 9
-85 9 -1147 -1 -1225 -25 -197 -53 -317 -91 -391 l-24 -47 167 -80 c224 -108
380 -167 637 -242 143 -42 464 -109 594 -125 25 -3 56 -8 70 -10 34 -7 149
-20 265 -30 33 -3 79 -8 102 -10 237 -24 810 -24 1093 0 19 1 78 6 130 10 52
3 106 8 120 10 14 2 54 7 90 10 35 3 78 8 95 10 246 34 324 46 345 50 13 2 42
7 65 11 22 3 94 17 160 30 66 14 131 28 145 30 116 23 361 89 525 140 109 35
105 33 108 33 1 0 34 13 72 29 117 49 198 91 238 125 l37 32 -49 100 c-98 201
-148 392 -156 606 -3 74 -7 157 -10 184 -23 211 -26 255 -30 420 -2 83 -7 218
-11 300 -14 295 -7 613 16 736 6 30 13 67 16 83 3 16 7 32 9 36 6 10 25 128
31 195 3 33 9 83 14 110 5 28 12 62 14 78 3 15 7 35 10 45 3 9 7 33 10 52 3
19 8 46 11 60 3 14 7 36 10 50 3 14 8 45 11 70 3 25 8 53 10 64 2 10 4 52 5
92 1 41 6 74 10 74 5 0 9 -10 9 -23 0 -12 13 -38 29 -57 l29 -35 83 2 c174 3
338 83 496 240 107 107 125 182 128 553 2 157 5 296 8 310 3 14 8 46 12 72 3
26 7 53 10 60 2 7 6 29 9 50 3 20 19 84 36 143 38 131 44 172 44 300 0 100 -6
159 -21 205 -27 83 -90 128 -159 115 -44 -8 -162 -62 -216 -98 l-36 -25 18 42
c20 44 25 65 35 161 4 32 11 67 16 77 5 10 14 53 19 95 6 43 12 89 15 103 3
14 7 43 9 65 3 22 7 63 10 90 18 164 27 834 14 975 -5 53 -5 70 3 58 26 -46
40 -4 44 137 4 138 16 346 21 370 11 51 4 346 -10 423 -16 85 -110 377 -152
468 -34 74 -98 156 -217 276 -58 59 -138 149 -178 200 -89 115 -382 406 -557
553 -20 17 -43 37 -52 45 -194 183 -799 491 -1090 555 -8 2 -69 20 -135 39
-125 38 -160 43 -170 26 -4 -6 -21 2 -41 20 -19 16 -40 30 -48 30 -7 0 -37 13
-67 29 -63 33 -180 65 -299 82 -99 13 -478 18 -597 8z"/>
</g>
</svg>
