<?xml version="1.0" standalone="no"?>
<!DOCTYPE svg PUBLIC "-//W3C//DTD SVG 20010904//EN"
 "http://www.w3.org/TR/2001/REC-SVG-20010904/DTD/svg10.dtd">
<svg version="1.0" xmlns="http://www.w3.org/2000/svg"
 width="528.000000pt" height="528.000000pt" viewBox="0 0 528.000000 528.000000"
 preserveAspectRatio="xMidYMid meet">
<metadata>
Created by potrace 1.11, written by Peter Selinger 2001-2013
</metadata>
<g transform="translate(0.000000,528.000000) scale(0.100000,-0.100000)"
fill="#000000" stroke="none">
<path d="M2620 4803 c-8 -3 -572 -269 -1253 -591 -1311 -620 -1267 -597 -1267
-662 0 -32 53 -80 88 -80 19 0 473 210 1214 561 650 309 1197 566 1214 571 30
10 106 -24 1239 -561 754 -356 1218 -571 1237 -571 19 0 40 10 59 29 51 52 34
105 -50 149 -88 47 -2424 1149 -2446 1155 -11 3 -27 3 -35 0z"/>
<path d="M1270 3569 c-54 -24 -83 -50 -119 -104 l-26 -40 -3 -310 c-3 -348 -1
-362 66 -430 20 -21 57 -47 82 -59 43 -20 61 -21 478 -24 l432 -3 0 -225 0
-224 -410 0 -410 0 0 105 0 105 -136 0 -136 0 4 -142 c5 -162 16 -199 76 -261
20 -21 60 -46 89 -57 51 -19 79 -20 512 -20 504 0 511 1 585 62 21 17 49 54
62 82 23 50 24 57 24 352 l0 300 -26 52 c-14 29 -42 65 -62 82 -71 59 -84 60
-549 60 l-423 0 0 230 0 230 398 -2 397 -3 3 -107 3 -108 129 0 130 0 0 136
c0 78 -5 154 -12 178 -16 55 -101 140 -154 155 -25 7 -199 11 -499 11 -441 0
-462 -1 -505 -21z"/>
<path d="M3040 2753 c-178 -461 -325 -846 -328 -856 -4 -16 5 -17 128 -15
l132 3 28 70 c15 39 48 125 74 193 l48 122 372 0 372 0 64 -167 c35 -93 69
-180 77 -195 l14 -28 130 0 c121 0 131 1 125 18 -4 9 -152 394 -329 854 l-322
838 -131 0 -131 0 -323 -837z m593 122 c70 -181 127 -333 127 -337 0 -5 -119
-8 -265 -8 -202 0 -265 3 -265 12 0 11 245 650 257 671 3 5 8 5 12 0 4 -4 65
-156 134 -338z"/>
<path d="M129 1781 c-32 -33 -36 -58 -15 -100 13 -24 195 -113 1265 -619 687
-326 1255 -592 1261 -592 6 0 574 266 1261 592 1324 626 1279 603 1279 668 0
32 -53 80 -88 80 -19 0 -474 -211 -1213 -561 -651 -309 -1200 -566 -1219 -571
-33 -9 -93 18 -1238 561 -759 360 -1215 571 -1234 571 -19 0 -39 -10 -59 -29z"/>
</g>
</svg>
